<svg width="569" height="512" viewBox="0 0 569 512" fill="none" xmlns="http://www.w3.org/2000/svg">
<path d="M284.495 0.0361328C241.709 0.0361328 204.182 35.689 179.486 92.4555C173.925 91.6969 168.423 91.0106 163.022 90.5229C101.542 84.924 57.1696 98.2531 38.0551 128.036C16.6718 161.359 32.1923 208.427 74.5172 256.018C32.1923 303.609 16.6718 350.677 38.0551 384C57.1696 413.783 101.542 427.112 163.022 421.513C168.423 421.026 173.945 420.357 179.526 419.581C181.534 424.313 183.662 428.954 185.891 433.416C211.21 484.095 246.266 512 284.495 512C327.282 512 364.808 476.347 389.505 419.581C395.066 420.357 400.568 421.026 405.969 421.513C467.448 427.112 511.821 413.783 530.936 384C537.389 373.76 540.688 362.157 540.493 350.388C540.493 322.176 523.989 289.233 494.474 256.018C523.989 222.822 540.493 189.86 540.493 161.612C540.685 149.843 537.386 138.241 530.936 128C511.821 98.217 467.448 84.8878 405.969 90.4868C400.568 90.9745 395.066 91.6608 389.505 92.4193C364.848 35.6529 327.262 0 284.495 0M55.6035 161.829C55.4006 154.261 57.4378 146.781 61.5065 140.155C74.7782 119.475 110.778 110.192 160.271 114.707C163.644 115.014 167.058 115.375 170.491 115.809C162.589 139.413 156.953 163.583 153.646 188.054C131.725 202.888 111.257 219.384 92.4671 237.361C68.2126 209.131 55.6035 182.635 55.6035 161.847M338.707 171.546C356.332 180.68 373.421 190.627 389.906 201.347C391.981 219.517 393.013 237.771 392.998 256.036C393.012 274.296 391.98 292.544 389.906 310.707C373.42 321.398 356.331 331.315 338.707 340.418C321.13 349.552 303.035 357.854 284.495 365.289C265.956 357.854 247.86 349.552 230.284 340.418C212.73 331.33 195.702 321.443 179.265 310.798C177.139 292.601 176.08 274.315 176.093 256.018C176.081 237.759 177.113 219.511 179.185 201.347C195.647 190.665 212.702 180.742 230.284 171.618C247.865 162.491 265.959 154.19 284.495 146.748C303.031 154.19 321.126 162.491 338.707 171.618M318.628 134.321C336.005 128.589 353.778 123.883 371.836 120.234C377.325 136.072 381.651 152.217 384.786 168.566C374.372 162.352 363.537 156.332 352.279 150.504C341.156 144.743 329.932 139.342 318.709 134.249M418.879 290.316C419.642 279.082 420.084 267.613 420.084 256C420.084 244.387 419.642 232.845 418.879 221.593C433.084 232.262 446.499 243.755 459.035 256C446.501 268.218 433.086 279.682 418.879 290.316ZM384.746 343.453C381.625 359.806 377.312 375.958 371.836 391.802C353.807 388.167 336.06 383.48 318.709 377.769C329.932 372.748 341.156 367.366 352.279 361.514C363.403 355.662 374.366 349.611 384.786 343.453M250.262 377.769C232.975 383.459 215.296 388.135 197.336 391.766C191.853 375.961 187.514 359.853 184.345 343.543C194.726 349.72 205.487 355.77 216.711 361.604C227.935 367.438 239.018 372.766 250.262 377.859M150.092 221.702C149.329 232.936 148.887 244.405 148.887 256.108C148.887 267.716 149.289 279.154 150.092 290.425C135.885 279.79 122.47 268.326 109.935 256.108C122.467 243.859 135.881 232.365 150.092 221.702ZM216.711 150.54C205.441 156.392 194.598 162.443 184.184 168.692C187.32 152.3 191.653 136.113 197.155 120.234C215.182 123.877 232.928 128.565 250.282 134.267C239.058 139.288 227.835 144.689 216.731 150.522M160.291 397.257C110.819 401.826 74.7983 392.489 61.5266 371.827C57.4642 365.198 55.4274 357.72 55.6236 350.153C55.6236 329.365 68.2327 302.869 92.4872 274.639C111.291 292.628 131.772 309.136 153.706 323.983C157.029 348.446 162.644 372.614 170.491 396.227C167.058 396.643 163.665 397.022 160.291 397.311M210.607 423.41C209.269 420.628 207.93 417.793 206.592 414.903C233.237 409.222 259.298 401.518 284.495 391.875C309.742 401.536 335.858 409.246 362.56 414.921C341.578 460.941 312.504 487.617 284.495 487.617C257.952 487.617 231.027 464.138 210.607 423.41ZM507.464 371.827C494.192 392.489 458.172 401.826 408.699 397.257C405.326 396.968 401.933 396.589 398.479 396.173C406.379 372.569 412.015 348.399 415.325 323.928C437.254 309.089 457.734 292.594 476.544 274.621C510.335 313.977 521.479 349.937 507.464 371.773M408.699 114.725C458.192 110.21 494.192 119.493 507.464 140.173C521.519 161.991 510.335 197.969 476.544 237.307C457.734 219.34 437.253 202.85 415.325 188.017C412.017 163.547 406.382 139.376 398.479 115.773C401.933 115.339 405.326 114.978 408.699 114.671M362.519 97.0069C335.833 102.698 309.732 110.413 284.495 120.071C259.245 110.418 233.13 102.708 206.431 97.025C227.413 51.0952 256.486 24.3466 284.495 24.3466C312.504 24.3466 341.578 51.023 362.56 97.043" fill="#7828C8"/>
<path d="M284.495 0.0361328C241.709 0.0361328 204.182 35.689 179.486 92.4555C173.925 91.6969 168.423 91.0106 163.022 90.5229C101.542 84.924 57.1696 98.2531 38.0551 128.036C16.6718 161.359 32.1923 208.427 74.5172 256.018C32.1923 303.609 16.6718 350.677 38.0551 384C57.1696 413.783 101.542 427.112 163.022 421.513C168.423 421.026 173.945 420.357 179.526 419.581C181.534 424.313 183.662 428.954 185.891 433.416C211.21 484.095 246.266 512 284.495 512C327.282 512 364.808 476.347 389.505 419.581C395.066 420.357 400.568 421.026 405.969 421.513C467.448 427.112 511.821 413.783 530.936 384C537.389 373.76 540.688 362.157 540.493 350.388C540.493 322.176 523.989 289.233 494.474 256.018C523.989 222.822 540.493 189.86 540.493 161.612C540.685 149.843 537.386 138.241 530.936 128C511.821 98.217 467.448 84.8878 405.969 90.4868C400.568 90.9745 395.066 91.6608 389.505 92.4193C364.848 35.6529 327.262 0 284.495 0M55.6035 161.829C55.4006 154.261 57.4378 146.781 61.5065 140.155C74.7782 119.475 110.778 110.192 160.271 114.707C163.644 115.014 167.058 115.375 170.491 115.809C162.589 139.413 156.953 163.583 153.646 188.054C131.725 202.888 111.257 219.384 92.4671 237.361C68.2126 209.131 55.6035 182.635 55.6035 161.847M338.707 171.546C356.332 180.68 373.421 190.627 389.906 201.347C391.981 219.517 393.013 237.771 392.998 256.036C393.012 274.296 391.98 292.544 389.906 310.707C373.42 321.398 356.331 331.315 338.707 340.418C321.13 349.552 303.035 357.854 284.495 365.289C265.956 357.854 247.86 349.552 230.284 340.418C212.73 331.33 195.702 321.443 179.265 310.798C177.139 292.601 176.08 274.315 176.093 256.018C176.081 237.759 177.113 219.511 179.185 201.347C195.647 190.665 212.702 180.742 230.284 171.618C247.865 162.491 265.959 154.19 284.495 146.748C303.031 154.19 321.126 162.491 338.707 171.618M318.628 134.321C336.005 128.589 353.778 123.883 371.836 120.234C377.325 136.072 381.651 152.217 384.786 168.566C374.372 162.352 363.537 156.332 352.279 150.504C341.156 144.743 329.932 139.342 318.709 134.249M418.879 290.316C419.642 279.082 420.084 267.613 420.084 256C420.084 244.387 419.642 232.845 418.879 221.593C433.084 232.262 446.499 243.755 459.035 256C446.501 268.218 433.086 279.682 418.879 290.316ZM384.746 343.453C381.625 359.806 377.312 375.958 371.836 391.802C353.807 388.167 336.06 383.48 318.709 377.769C329.932 372.748 341.156 367.366 352.279 361.514C363.403 355.662 374.366 349.611 384.786 343.453M250.262 377.769C232.975 383.459 215.296 388.135 197.336 391.766C191.853 375.961 187.514 359.853 184.345 343.543C194.726 349.72 205.487 355.77 216.711 361.604C227.935 367.438 239.018 372.766 250.262 377.859M150.092 221.702C149.329 232.936 148.887 244.405 148.887 256.108C148.887 267.716 149.289 279.154 150.092 290.425C135.885 279.79 122.47 268.326 109.935 256.108C122.467 243.859 135.881 232.365 150.092 221.702ZM216.711 150.54C205.441 156.392 194.598 162.443 184.184 168.692C187.32 152.3 191.653 136.113 197.155 120.234C215.182 123.877 232.928 128.565 250.282 134.267C239.058 139.288 227.835 144.689 216.731 150.522M160.291 397.257C110.819 401.826 74.7983 392.489 61.5266 371.827C57.4642 365.198 55.4274 357.72 55.6236 350.153C55.6236 329.365 68.2327 302.869 92.4872 274.639C111.291 292.628 131.772 309.136 153.706 323.983C157.029 348.446 162.644 372.614 170.491 396.227C167.058 396.643 163.665 397.022 160.291 397.311M210.607 423.41C209.269 420.628 207.93 417.793 206.592 414.903C233.237 409.222 259.298 401.518 284.495 391.875C309.742 401.536 335.858 409.246 362.56 414.921C341.578 460.941 312.504 487.617 284.495 487.617C257.952 487.617 231.027 464.138 210.607 423.41ZM507.464 371.827C494.192 392.489 458.172 401.826 408.699 397.257C405.326 396.968 401.933 396.589 398.479 396.173C406.379 372.569 412.015 348.399 415.325 323.928C437.254 309.089 457.734 292.594 476.544 274.621C510.335 313.977 521.479 349.937 507.464 371.773M408.699 114.725C458.192 110.21 494.192 119.493 507.464 140.173C521.519 161.991 510.335 197.969 476.544 237.307C457.734 219.34 437.253 202.85 415.325 188.017C412.017 163.547 406.382 139.376 398.479 115.773C401.933 115.339 405.326 114.978 408.699 114.671M362.519 97.0069C335.833 102.698 309.732 110.413 284.495 120.071C259.245 110.418 233.13 102.708 206.431 97.025C227.413 51.0952 256.486 24.3466 284.495 24.3466C312.504 24.3466 341.578 51.023 362.56 97.043" fill="#7828C8"/>
<path d="M249.498 291.497L319.498 221.497M249.498 221.497L319.498 291.497" stroke="#7828C8" stroke-width="25" stroke-linecap="round" stroke-linejoin="round"/>
</svg>
