<svg width="988" height="280" viewBox="0 0 988 280" fill="none" xmlns="http://www.w3.org/2000/svg">
<path d="M149.998 0.0190735C127.439 0.0190735 107.654 18.8204 94.6329 48.7558C91.7006 48.3558 88.8 47.9939 85.9523 47.7367C53.5378 44.7841 30.1426 51.8132 20.0647 67.519C8.79052 85.0917 16.9735 109.913 39.289 135.01C16.9735 160.107 8.79052 184.927 20.0647 202.5C30.1426 218.206 53.5378 225.235 85.9523 222.282C88.8 222.025 91.7112 221.673 94.6541 221.263C95.7127 223.759 96.8348 226.206 98.0099 228.559C111.359 255.285 129.842 270 149.998 270C172.557 270 192.342 251.199 205.363 221.263C208.295 221.673 211.196 222.025 214.044 222.282C246.458 225.235 269.853 218.206 279.931 202.5C283.334 197.1 285.073 190.981 284.97 184.775C284.97 169.898 276.269 152.525 260.707 135.01C276.269 117.504 284.97 100.121 284.97 85.2251C285.072 79.0188 283.332 72.9004 279.931 67.5C269.853 51.7941 246.458 44.7651 214.044 47.7177C211.196 47.9748 208.295 48.3367 205.363 48.7368C192.363 18.8013 172.546 0 149.998 0M29.3169 85.3394C29.2099 81.3487 30.284 77.4042 32.4292 73.91C39.4266 63.0044 58.4074 58.1089 84.502 60.49C86.2805 60.6519 88.0801 60.8424 89.8904 61.071C85.724 73.5183 82.7526 86.2644 81.0087 99.1689C69.4513 106.992 58.6599 115.691 48.7529 125.171C35.9649 110.284 29.3169 96.3116 29.3169 85.3489M178.58 90.4635C187.873 95.2806 196.883 100.526 205.575 106.179C206.669 115.761 207.213 125.387 207.205 135.019C207.213 144.648 206.668 154.271 205.575 163.85C196.883 169.487 187.873 174.717 178.58 179.517C169.313 184.334 159.773 188.712 149.998 192.633C140.223 188.712 130.683 184.334 121.416 179.517C112.161 174.725 103.183 169.511 94.5165 163.897C93.3954 154.301 92.8371 144.659 92.8438 135.01C92.8374 125.381 93.3815 115.758 94.4741 106.179C103.154 100.546 112.146 95.3133 121.416 90.5016C130.685 85.6885 140.225 81.3109 149.998 77.3864C159.771 81.3109 169.311 85.6885 178.58 90.5016M167.994 70.8336C177.156 67.8107 186.527 65.3291 196.047 63.4045C198.941 71.7566 201.222 80.2708 202.875 88.892C197.385 85.6156 191.672 82.4408 185.737 79.3675C179.872 76.3292 173.954 73.4814 168.037 70.7955M220.851 153.097C221.253 147.172 221.486 141.124 221.486 135C221.486 128.876 221.253 122.79 220.851 116.856C228.34 122.482 235.413 128.543 242.023 135C235.414 141.443 228.341 147.488 220.851 153.097ZM202.854 181.118C201.209 189.742 198.935 198.259 196.047 206.615C186.542 204.698 177.185 202.226 168.037 199.214C173.954 196.566 179.872 193.728 185.737 190.642C191.601 187.556 197.381 184.365 202.875 181.118M131.949 199.214C122.834 202.215 113.513 204.681 104.044 206.596C101.153 198.261 98.8655 189.766 97.1947 181.165C102.668 184.423 108.342 187.613 114.259 190.69C120.177 193.766 126.021 196.576 131.949 199.262M79.1349 116.913C78.7326 122.837 78.4997 128.885 78.4997 135.057C78.4997 141.178 78.7115 147.21 79.1349 153.154C71.6443 147.546 64.5717 141.5 57.9628 135.057C64.57 128.598 71.6426 122.536 79.1349 116.913ZM114.259 79.3866C108.317 82.4725 102.601 85.6632 97.11 88.9587C98.7632 80.3147 101.048 71.7781 103.949 63.4045C113.453 65.3258 122.809 67.7978 131.959 70.805C126.042 73.4528 120.124 76.3006 114.27 79.377M84.5126 209.491C58.4286 211.901 39.4372 206.977 32.4398 196.08C30.2979 192.585 29.2241 188.641 29.3275 184.651C29.3275 173.688 35.9755 159.716 48.7635 144.829C58.6775 154.316 69.4759 163.021 81.0404 170.85C82.7926 183.751 85.7531 196.496 89.8904 208.948C88.0801 209.167 86.2911 209.367 84.5126 209.52M111.041 223.282C110.336 221.816 109.63 220.32 108.924 218.796C122.972 215.8 136.713 211.738 149.998 206.653C163.309 211.748 177.079 215.813 191.157 218.806C180.094 243.074 164.766 257.142 149.998 257.142C136.003 257.142 121.807 244.76 111.041 223.282ZM267.556 196.08C260.559 206.977 241.567 211.901 215.483 209.491C213.705 209.339 211.916 209.139 210.095 208.92C214.26 196.472 217.232 183.726 218.977 170.822C230.538 162.996 241.337 154.297 251.254 144.82C269.07 165.574 274.945 184.537 267.556 196.052M215.483 60.4995C241.578 58.1184 260.559 63.014 267.556 73.9195C274.966 85.4251 269.07 104.398 251.254 125.142C241.336 115.668 230.538 106.972 218.977 99.1499C217.233 86.2453 214.261 73.4993 210.095 61.0519C211.916 60.8233 213.705 60.6329 215.483 60.4709M191.135 51.156C177.066 54.157 163.304 58.2258 149.998 63.3188C136.685 58.228 122.916 54.1624 108.839 51.1655C119.902 26.9448 135.23 12.839 149.998 12.839C164.766 12.839 180.094 26.9067 191.157 51.175" fill="#7828C8"/>
<path d="M149.998 0.0190735C127.439 0.0190735 107.654 18.8204 94.6329 48.7558C91.7006 48.3558 88.8 47.9939 85.9523 47.7367C53.5378 44.7841 30.1426 51.8132 20.0647 67.519C8.79052 85.0917 16.9735 109.913 39.289 135.01C16.9735 160.107 8.79052 184.927 20.0647 202.5C30.1426 218.206 53.5378 225.235 85.9523 222.282C88.8 222.025 91.7112 221.673 94.6541 221.263C95.7127 223.759 96.8348 226.206 98.0099 228.559C111.359 255.285 129.842 270 149.998 270C172.557 270 192.342 251.199 205.363 221.263C208.295 221.673 211.196 222.025 214.044 222.282C246.458 225.235 269.853 218.206 279.931 202.5C283.334 197.1 285.073 190.981 284.97 184.775C284.97 169.898 276.269 152.525 260.707 135.01C276.269 117.504 284.97 100.121 284.97 85.2251C285.072 79.0188 283.332 72.9004 279.931 67.5C269.853 51.7941 246.458 44.7651 214.044 47.7177C211.196 47.9748 208.295 48.3367 205.363 48.7368C192.363 18.8013 172.546 0 149.998 0M29.3169 85.3394C29.2099 81.3487 30.284 77.4042 32.4292 73.91C39.4266 63.0044 58.4074 58.1089 84.502 60.49C86.2805 60.6519 88.0801 60.8424 89.8904 61.071C85.724 73.5183 82.7526 86.2644 81.0087 99.1689C69.4513 106.992 58.6599 115.691 48.7529 125.171C35.9649 110.284 29.3169 96.3116 29.3169 85.3489M178.58 90.4635C187.873 95.2806 196.883 100.526 205.575 106.179C206.669 115.761 207.213 125.387 207.205 135.019C207.213 144.648 206.668 154.271 205.575 163.85C196.883 169.487 187.873 174.717 178.58 179.517C169.313 184.334 159.773 188.712 149.998 192.633C140.223 188.712 130.683 184.334 121.416 179.517C112.161 174.725 103.183 169.511 94.5165 163.897C93.3954 154.301 92.8371 144.659 92.8438 135.01C92.8374 125.381 93.3815 115.758 94.4741 106.179C103.154 100.546 112.146 95.3133 121.416 90.5016C130.685 85.6885 140.225 81.3109 149.998 77.3864C159.771 81.3109 169.311 85.6885 178.58 90.5016M167.994 70.8336C177.156 67.8107 186.527 65.3291 196.047 63.4045C198.941 71.7566 201.222 80.2708 202.875 88.892C197.385 85.6156 191.672 82.4408 185.737 79.3675C179.872 76.3292 173.954 73.4814 168.037 70.7955M220.851 153.097C221.253 147.172 221.486 141.124 221.486 135C221.486 128.876 221.253 122.79 220.851 116.856C228.34 122.482 235.413 128.543 242.023 135C235.414 141.443 228.341 147.488 220.851 153.097ZM202.854 181.118C201.209 189.742 198.935 198.259 196.047 206.615C186.542 204.698 177.185 202.226 168.037 199.214C173.954 196.566 179.872 193.728 185.737 190.642C191.601 187.556 197.381 184.365 202.875 181.118M131.949 199.214C122.834 202.215 113.513 204.681 104.044 206.596C101.153 198.261 98.8655 189.766 97.1947 181.165C102.668 184.423 108.342 187.613 114.259 190.69C120.177 193.766 126.021 196.576 131.949 199.262M79.1349 116.913C78.7326 122.837 78.4997 128.885 78.4997 135.057C78.4997 141.178 78.7115 147.21 79.1349 153.154C71.6443 147.546 64.5717 141.5 57.9628 135.057C64.57 128.598 71.6426 122.536 79.1349 116.913ZM114.259 79.3866C108.317 82.4725 102.601 85.6632 97.11 88.9587C98.7632 80.3147 101.048 71.7781 103.949 63.4045C113.453 65.3258 122.809 67.7978 131.959 70.805C126.042 73.4528 120.124 76.3006 114.27 79.377M84.5126 209.491C58.4286 211.901 39.4372 206.977 32.4398 196.08C30.2979 192.585 29.2241 188.641 29.3275 184.651C29.3275 173.688 35.9755 159.716 48.7635 144.829C58.6775 154.316 69.4759 163.021 81.0404 170.85C82.7926 183.751 85.7531 196.496 89.8904 208.948C88.0801 209.167 86.2911 209.367 84.5126 209.52M111.041 223.282C110.336 221.816 109.63 220.32 108.924 218.796C122.972 215.8 136.713 211.738 149.998 206.653C163.309 211.748 177.079 215.813 191.157 218.806C180.094 243.074 164.766 257.142 149.998 257.142C136.003 257.142 121.807 244.76 111.041 223.282ZM267.556 196.08C260.559 206.977 241.567 211.901 215.483 209.491C213.705 209.339 211.916 209.139 210.095 208.92C214.26 196.472 217.232 183.726 218.977 170.822C230.538 162.996 241.337 154.297 251.254 144.82C269.07 165.574 274.945 184.537 267.556 196.052M215.483 60.4995C241.578 58.1184 260.559 63.014 267.556 73.9195C274.966 85.4251 269.07 104.398 251.254 125.142C241.336 115.668 230.538 106.972 218.977 99.1499C217.233 86.2453 214.261 73.4993 210.095 61.0519C211.916 60.8233 213.705 60.6329 215.483 60.4709M191.135 51.156C177.066 54.157 163.304 58.2258 149.998 63.3188C136.685 58.228 122.916 54.1624 108.839 51.1655C119.902 26.9448 135.23 12.839 149.998 12.839C164.766 12.839 180.094 26.9067 191.157 51.175" fill="#7828C8"/>
<path d="M149.998 0.0190735C127.439 0.0190735 107.654 18.8204 94.6329 48.7558C91.7006 48.3558 88.8 47.9939 85.9523 47.7367C53.5378 44.7841 30.1426 51.8132 20.0647 67.519C8.79052 85.0917 16.9735 109.913 39.289 135.01C16.9735 160.107 8.79052 184.927 20.0647 202.5C30.1426 218.206 53.5378 225.235 85.9523 222.282C88.8 222.025 91.7112 221.673 94.6541 221.263C95.7127 223.759 96.8348 226.206 98.0099 228.559C111.359 255.285 129.842 270 149.998 270C172.557 270 192.342 251.199 205.363 221.263C208.295 221.673 211.196 222.025 214.044 222.282C246.458 225.235 269.853 218.206 279.931 202.5C283.334 197.1 285.073 190.981 284.97 184.775C284.97 169.898 276.269 152.525 260.707 135.01C276.269 117.504 284.97 100.121 284.97 85.2251C285.072 79.0188 283.332 72.9004 279.931 67.5C269.853 51.7941 246.458 44.7651 214.044 47.7177C211.196 47.9748 208.295 48.3367 205.363 48.7368C192.363 18.8013 172.546 0 149.998 0M29.3169 85.3394C29.2099 81.3487 30.284 77.4042 32.4292 73.91C39.4266 63.0044 58.4074 58.1089 84.502 60.49C86.2805 60.6519 88.0801 60.8424 89.8904 61.071C85.724 73.5183 82.7526 86.2644 81.0087 99.1689C69.4513 106.992 58.6599 115.691 48.7529 125.171C35.9649 110.284 29.3169 96.3116 29.3169 85.3489M178.58 90.4635C187.873 95.2806 196.883 100.526 205.575 106.179C206.669 115.761 207.213 125.387 207.205 135.019C207.213 144.648 206.668 154.271 205.575 163.85C196.883 169.487 187.873 174.717 178.58 179.517C169.313 184.334 159.773 188.712 149.998 192.633C140.223 188.712 130.683 184.334 121.416 179.517C112.161 174.725 103.183 169.511 94.5165 163.897C93.3954 154.301 92.8371 144.659 92.8438 135.01C92.8374 125.381 93.3815 115.758 94.4741 106.179C103.154 100.546 112.146 95.3133 121.416 90.5016C130.685 85.6885 140.225 81.3109 149.998 77.3864C159.771 81.3109 169.311 85.6885 178.58 90.5016M167.994 70.8336C177.156 67.8107 186.527 65.3291 196.047 63.4045C198.941 71.7566 201.222 80.2708 202.875 88.892C197.385 85.6156 191.672 82.4408 185.737 79.3675C179.872 76.3292 173.954 73.4814 168.037 70.7955M220.851 153.097C221.253 147.172 221.486 141.124 221.486 135C221.486 128.876 221.253 122.79 220.851 116.856C228.34 122.482 235.413 128.543 242.023 135C235.414 141.443 228.341 147.488 220.851 153.097ZM202.854 181.118C201.209 189.742 198.935 198.259 196.047 206.615C186.542 204.698 177.185 202.226 168.037 199.214C173.954 196.566 179.872 193.728 185.737 190.642C191.601 187.556 197.381 184.365 202.875 181.118M131.949 199.214C122.834 202.215 113.513 204.681 104.044 206.596C101.153 198.261 98.8655 189.766 97.1947 181.165C102.668 184.423 108.342 187.613 114.259 190.69C120.177 193.766 126.021 196.576 131.949 199.262M79.1349 116.913C78.7326 122.837 78.4997 128.885 78.4997 135.057C78.4997 141.178 78.7115 147.21 79.1349 153.154C71.6443 147.546 64.5717 141.5 57.9628 135.057C64.57 128.598 71.6426 122.536 79.1349 116.913ZM114.259 79.3866C108.317 82.4725 102.601 85.6632 97.11 88.9587C98.7632 80.3147 101.048 71.7781 103.949 63.4045C113.453 65.3258 122.809 67.7978 131.959 70.805C126.042 73.4528 120.124 76.3006 114.27 79.377M84.5126 209.491C58.4286 211.901 39.4372 206.977 32.4398 196.08C30.2979 192.585 29.2241 188.641 29.3275 184.651C29.3275 173.688 35.9755 159.716 48.7635 144.829C58.6775 154.316 69.4759 163.021 81.0404 170.85C82.7926 183.751 85.7531 196.496 89.8904 208.948C88.0801 209.167 86.2911 209.367 84.5126 209.52M111.041 223.282C110.336 221.816 109.63 220.32 108.924 218.796C122.972 215.8 136.713 211.738 149.998 206.653C163.309 211.748 177.079 215.813 191.157 218.806C180.094 243.074 164.766 257.142 149.998 257.142C136.003 257.142 121.807 244.76 111.041 223.282ZM267.556 196.08C260.559 206.977 241.567 211.901 215.483 209.491C213.705 209.339 211.916 209.139 210.095 208.92C214.26 196.472 217.232 183.726 218.977 170.822C230.538 162.996 241.337 154.297 251.254 144.82C269.07 165.574 274.945 184.537 267.556 196.052M215.483 60.4995C241.578 58.1184 260.559 63.014 267.556 73.9195C274.966 85.4251 269.07 104.398 251.254 125.142C241.336 115.668 230.538 106.972 218.977 99.1499C217.233 86.2453 214.261 73.4993 210.095 61.0519C211.916 60.8233 213.705 60.6329 215.483 60.4709M191.135 51.156C177.066 54.157 163.304 58.2258 149.998 63.3188C136.685 58.228 122.916 54.1624 108.839 51.1655C119.902 26.9448 135.23 12.839 149.998 12.839C164.766 12.839 180.094 26.9067 191.157 51.175" fill="#7828C8"/>
<path d="M131.811 153.457L168.717 116.543M131.811 116.543L168.717 153.457" stroke="#7828C8" stroke-width="15" stroke-linecap="round" stroke-linejoin="round"/>
<path d="M342.781 227V67H402.781C415.073 67 425.385 69.1354 433.719 73.4062C442.104 77.6771 448.432 83.6667 452.703 91.375C457.026 99.0312 459.188 107.964 459.188 118.172C459.188 128.432 457 137.339 452.625 144.891C448.302 152.391 441.922 158.198 433.484 162.312C425.047 166.375 414.682 168.406 402.391 168.406H359.656V144.344H398.484C405.672 144.344 411.557 143.354 416.141 141.375C420.724 139.344 424.109 136.401 426.297 132.547C428.536 128.641 429.656 123.849 429.656 118.172C429.656 112.495 428.536 107.651 426.297 103.641C424.057 99.5781 420.646 96.5052 416.063 94.4219C411.479 92.2865 405.568 91.2188 398.328 91.2188H371.766V227H342.781ZM425.438 154.5L465.047 227H432.703L393.797 154.5H425.438ZM536.023 229.344C523.992 229.344 513.602 226.844 504.852 221.844C496.154 216.792 489.461 209.656 484.773 200.437C480.086 191.167 477.742 180.255 477.742 167.703C477.742 155.359 480.086 144.526 484.773 135.203C489.513 125.828 496.128 118.536 504.617 113.328C513.107 108.068 523.081 105.438 534.539 105.438C541.935 105.438 548.914 106.635 555.477 109.031C562.091 111.375 567.924 115.021 572.977 119.969C578.081 124.917 582.091 131.219 585.008 138.875C587.924 146.479 589.383 155.542 589.383 166.062V174.734H491.023V155.672H562.273C562.221 150.255 561.049 145.437 558.758 141.219C556.466 136.948 553.263 133.589 549.148 131.141C545.086 128.693 540.346 127.469 534.93 127.469C529.148 127.469 524.07 128.875 519.695 131.687C515.32 134.448 511.909 138.094 509.461 142.625C507.065 147.104 505.841 152.026 505.789 157.391V174.031C505.789 181.01 507.065 187 509.617 192C512.169 196.948 515.737 200.75 520.32 203.406C524.904 206.01 530.268 207.312 536.414 207.312C540.529 207.312 544.253 206.74 547.586 205.594C550.919 204.396 553.81 202.651 556.258 200.359C558.706 198.068 560.555 195.229 561.805 191.844L588.211 194.812C586.544 201.792 583.367 207.885 578.68 213.094C574.044 218.25 568.107 222.26 560.867 225.125C553.628 227.937 545.346 229.344 536.023 229.344ZM647.84 229.422C640.236 229.422 633.387 228.068 627.293 225.359C621.251 222.599 616.46 218.536 612.918 213.172C609.428 207.807 607.684 201.193 607.684 193.328C607.684 186.557 608.934 180.958 611.434 176.531C613.934 172.104 617.345 168.562 621.668 165.906C625.991 163.25 630.861 161.245 636.277 159.891C641.746 158.484 647.397 157.469 653.23 156.844C660.262 156.115 665.965 155.464 670.34 154.891C674.715 154.266 677.892 153.328 679.871 152.078C681.902 150.776 682.918 148.771 682.918 146.062V145.594C682.918 139.708 681.173 135.151 677.684 131.922C674.194 128.693 669.168 127.078 662.605 127.078C655.678 127.078 650.184 128.589 646.121 131.609C642.111 134.63 639.402 138.198 637.996 142.312L611.59 138.562C613.673 131.271 617.111 125.177 621.902 120.281C626.694 115.333 632.553 111.635 639.48 109.187C646.408 106.688 654.064 105.438 662.449 105.438C668.23 105.438 673.986 106.115 679.715 107.469C685.444 108.823 690.678 111.062 695.418 114.187C700.158 117.26 703.96 121.453 706.824 126.766C709.741 132.078 711.199 138.719 711.199 146.687V227H684.012V210.516H683.074C681.355 213.849 678.934 216.974 675.809 219.891C672.736 222.755 668.855 225.073 664.168 226.844C659.533 228.563 654.09 229.422 647.84 229.422ZM655.184 208.641C660.861 208.641 665.783 207.521 669.949 205.281C674.116 202.99 677.319 199.969 679.559 196.219C681.85 192.469 682.996 188.38 682.996 183.953V169.812C682.111 170.542 680.6 171.219 678.465 171.844C676.382 172.469 674.038 173.016 671.434 173.484C668.829 173.953 666.251 174.37 663.699 174.734C661.147 175.099 658.934 175.411 657.059 175.672C652.84 176.245 649.064 177.182 645.73 178.484C642.397 179.786 639.767 181.609 637.84 183.953C635.913 186.245 634.949 189.214 634.949 192.859C634.949 198.068 636.85 202 640.652 204.656C644.454 207.312 649.298 208.641 655.184 208.641ZM784.168 229.109C774.741 229.109 766.303 226.688 758.855 221.844C751.408 217 745.522 209.969 741.199 200.75C736.876 191.531 734.715 180.333 734.715 167.156C734.715 153.823 736.902 142.573 741.277 133.406C745.704 124.187 751.668 117.234 759.168 112.547C766.668 107.807 775.027 105.438 784.246 105.438C791.277 105.438 797.059 106.635 801.59 109.031C806.121 111.375 809.715 114.214 812.371 117.547C815.027 120.828 817.085 123.927 818.543 126.844H819.715V67H848.074V227H820.262V208.094H818.543C817.085 211.01 814.975 214.109 812.215 217.391C809.454 220.62 805.809 223.38 801.277 225.672C796.746 227.964 791.043 229.109 784.168 229.109ZM792.059 205.906C798.048 205.906 803.152 204.292 807.371 201.062C811.59 197.781 814.793 193.224 816.98 187.391C819.168 181.557 820.262 174.76 820.262 167C820.262 159.24 819.168 152.495 816.98 146.766C814.845 141.036 811.668 136.583 807.449 133.406C803.283 130.229 798.152 128.641 792.059 128.641C785.757 128.641 780.496 130.281 776.277 133.562C772.059 136.844 768.882 141.375 766.746 147.156C764.611 152.937 763.543 159.552 763.543 167C763.543 174.5 764.611 181.193 766.746 187.078C768.934 192.911 772.137 197.521 776.355 200.906C780.626 204.24 785.861 205.906 792.059 205.906ZM901.336 107L925.555 151.297L950.164 107H980.086L943.914 167L980.711 227H950.945L925.555 183.797L900.398 227H870.398L906.961 167L871.336 107H901.336Z" fill="#7828C8"/>
</svg>
